# xmcd
# Copyright (C) 1995-1998 Ti Kan
#
# Track frame offsets:
#       150
#       17929
#       30280
#       46840
#       62565
#       79608
#       98453
#       122801
#       143480
#       156179
#       169574
#       185313
#       201308
#       216209
#       229895
#       254497
#
# Disc length: 3569 seconds
#
# Revision: 0
# Processed by: cddbd v1.5.2PL0 Copyright (c) Steve Scherf et al.
# Submitted via: CD-Import v1.0
#
DISCID=cb0def10
DTITLE=F - Winti Kickt, Winti Rockt Rotes Album
DYEAR=10
DGENRE=
TTITLE0=Fuuscht Id Luft
TTITLE1=Numbers Like Me
TTITLE2=Nananananananaa
TTITLE3=S'tuet Nümme Weh
TTITLE4=Tonight, Tonight, Tonight
TTITLE5=Sunday Aftrenoon Drama
TTITLE6=Collective Goal
TTITLE7=Blow The Whistle
TTITLE8=Red Lions
TTITLE9=Die Wo Nöd Chönd Tschutte
TTITLE10=Fcw Song
TTITLE11=Centre Forward
TTITLE12=Heimspiel
TTITLE13=Hauenie (Politisch Korrekt Mix)
TTITLE14=1896 Für Immer
TTITLE15=Hard Rock City
EXTD=
EXTT0=
EXTT1=
EXTT2=
EXTT3=
EXTT4=
EXTT5=
EXTT6=
EXTT7=
EXTT8=
EXTT9=
EXTT10=
EXTT11=
EXTT12=
EXTT13=
EXTT14=
EXTT15=
PLAYORDER=
